<svg width="428" height="400" viewBox="0 0 428 400" fill="none" xmlns="http://www.w3.org/2000/svg">
<g clip-path="url(#clip0_1_33)">
<path d="M301.333 263.614L283.333 319.614L279.333 389.614L319.333 394.614L348.333 323.614L351.333 399.614L403.333 394.614C403.333 394.614 419.333 297.614 396.333 255.614L301.333 263.614Z" fill="#2F2E41"/>
<path d="M341.333 72.614L376.333 69.614L382.333 78.614C382.333 78.614 416.333 99.614 417.333 103.614C418.333 107.614 395.333 255.614 396.333 255.614C397.333 255.614 367.333 272.614 331.333 275.614C295.333 278.614 294.251 277.531 294.251 277.531L309.333 240.614L312.833 194.114L309.833 106.114L336.833 86.114L341.333 72.614Z" fill="black"/>
<path d="M355.762 67.7713C372.596 67.7713 386.244 54.1241 386.244 37.2894C386.244 20.4548 372.596 6.80757 355.762 6.80757C338.927 6.80757 325.28 20.4548 325.28 37.2894C325.28 54.1241 338.927 67.7713 355.762 67.7713Z" fill="#FFB6B6"/>
<path d="M378.149 62.3346C379.828 62.6209 381.799 58.5512 383.683 54.5875C387.626 46.2902 390.132 41.0155 390.323 33.5597C390.486 27.2052 388.72 28.873 387.003 14.7453C386.436 10.0856 378.476 10.0945 376.856 7.88189C374.119 4.14438 366.143 3.85917 359.334 1.61396C346.579 -2.5914 352.987 2.68528 344.887 3.24811C344.683 3.26235 340.667 7.18919 338.425 7.39225C334.496 7.74801 335.334 3.61396 333.334 8.61396C331.075 14.2597 322.337 11.9088 324.46 13.933C326.263 15.6516 326.334 16.614 326.334 16.614C326.334 16.614 316.733 22.0913 320.334 22.614C322.474 22.9248 315.192 16.8697 314.102 19.7318C313.407 21.557 326.157 37.1468 325.102 39.7318C323.998 42.4353 331.102 35.7318 329.102 26.7318C327.67 20.2905 331.334 25.614 353.304 29.8634C355.977 30.3804 358.174 27.3615 360.441 25.8126C361.066 25.3858 360.476 26.0664 362.655 31.3462C365.403 38.0052 366.023 38.3659 365.975 40.2C365.871 44.1703 362.89 45.3393 363.762 47.9472C364.467 50.0593 367.225 51.6944 369.295 51.2673C371.631 50.7853 372.031 47.8958 373.722 47.9472C375.17 47.9912 376.889 50.1725 377.042 52.3741C377.365 57.0122 370.498 58.2878 369.295 64.5481C368.616 68.0812 376.606 62.0716 378.149 62.3346Z" fill="#2F2E41"/>
<path d="M298.524 79.5338C299.464 81.441 301.402 82.7145 303.451 83.2833C305.5 83.8522 307.668 83.7972 309.787 83.6234C316.366 83.0836 322.851 81.4307 328.885 78.7561C331.371 77.6545 333.838 76.3362 335.637 74.2978C337.435 72.2594 338.464 69.3652 337.679 66.7625C324.829 71.8446 311.633 76.0539 298.214 79.3519" fill="#3F3D56"/>
<path d="M292.088 67.3892C292.23 69.8787 292.383 72.4193 293.248 74.7773C294.114 77.1353 295.832 79.3218 298.086 80.0021C299.672 80.4807 301.318 80.1754 302.898 79.8672C313.797 77.742 324.897 75.5421 334.475 69.8771C336.341 68.7732 338.242 67.4126 339.01 65.2606C339.78 63.1057 339.254 60.6201 338.721 58.3049C338.298 56.464 337.569 54.2756 335.862 53.8126C334.874 53.5444 333.889 53.9823 332.985 54.4043C320.012 60.4599 306.366 64.9964 292.347 67.9136" fill="black"/>
<path d="M319.855 61.0507L323.85 62.7983C326.334 63.8855 329.227 62.6856 330.205 60.156C330.883 58.4008 331.726 56.7089 332.72 55.1111C328.667 57.6493 324.284 59.6585 319.715 61.0715" fill="#E6E6E6"/>
<path d="M294.184 69.3826L298.011 71.0571C300.509 72.1501 303.408 70.94 304.4 68.4004C305.061 66.711 305.876 65.082 306.834 63.5418C302.849 66.0378 298.538 68.0135 294.046 69.403" fill="#E6E6E6"/>
<path d="M300.025 66.6108C308.479 70.31 318.353 66.8607 322.669 58.7041C323.293 57.5251 323.958 56.3678 324.663 55.2351C316.901 60.0964 308.506 63.9444 299.756 66.6507" fill="#E6E6E6"/>
<path d="M293.828 65.9715C292.849 66.34 292.496 67.6873 292.978 68.6157C293.46 69.5442 294.548 70.0383 295.594 70.0671C296.64 70.0958 297.656 69.7328 298.615 69.3146C300.552 68.4697 302.372 67.3827 304.186 66.2989L318.995 57.452C319.524 57.1358 320.099 56.7595 320.247 56.1609C320.459 55.299 319.593 54.4742 318.709 54.3896C317.825 54.305 316.981 54.7301 316.203 55.1577C311.099 57.9638 306.331 61.4271 300.941 63.6353C298.58 64.6023 296.118 65.3194 293.608 65.7711" fill="#FF6884"/>
<path d="M308.611 58.9476C307.589 59.1728 307.117 60.9815 307.527 62.4498C307.937 63.918 308.996 64.9536 310.053 65.3141C311.109 65.6746 312.168 65.4685 313.174 65.1665C315.206 64.5565 317.141 63.5663 319.069 62.5787L334.809 54.5175C335.371 54.2294 335.986 53.8699 336.186 53.0633C336.474 51.9021 335.666 50.4638 334.779 50.0734C333.892 49.683 333.001 50.0296 332.177 50.4003C326.772 52.8327 321.653 56.303 316.009 57.7975C313.538 58.4519 310.985 58.7197 308.405 58.5951" fill="#FF6884"/>
<path d="M336.408 52.1303C323.173 55.5804 310.401 60.7398 298.458 67.4609C297.472 68.0158 296.479 68.5867 295.386 68.872C294.293 69.1574 293.07 69.1301 292.059 68.532C290.47 67.5915 289.786 65.4344 290.026 63.5712C290.265 61.7079 291.242 60.0821 292.271 58.5815C295.609 53.7118 299.793 49.4443 304.797 46.5585C309.801 43.6727 315.654 42.2194 321.444 42.9477C327.234 43.6761 332.921 46.6848 336.685 51.5284" fill="#3F3D56"/>
<path d="M337.505 70.2009C338.947 73.5101 339.523 76.8707 339.311 79.7795L355.043 110.436L340.237 117.495L325.872 85.6375C323.596 83.8131 321.526 81.104 320.083 77.7949C316.788 70.235 318.017 62.4067 322.827 60.3097C327.638 58.2126 334.209 62.6411 337.505 70.2009Z" fill="#FFB6B6"/>
<path d="M396.833 106.114C396.833 106.114 414.833 90.114 425.833 103.114C436.833 116.114 388.833 213.114 388.833 213.114L363.833 207.114L332.833 103.114L352.833 92.114L372.833 145.114L396.833 106.114Z" fill="black"/>
<path d="M293.852 74.065C293.722 77.6726 294.418 81.0104 295.681 83.6392L292.275 117.928L308.638 119.072L310.332 84.1659C311.781 81.6346 312.715 78.3554 312.844 74.7479C313.141 66.5063 309.129 59.6725 303.885 59.4839C298.64 59.2954 294.148 65.8235 293.852 74.065Z" fill="#FFB6B6"/>
<path d="M318.833 198.114L313.333 100.614L293.333 96.614L288.333 144.614L291.467 178.513C292.715 192.018 305.645 201.279 318.833 198.114Z" fill="black"/>
</g>
<defs>
<clipPath id="clip0_1_33">
<rect width="427.472" height="399.614" fill="white"/>
</clipPath>
</defs>
</svg>
