<svg width="122" height="89" viewBox="0 0 122 89" fill="none" xmlns="http://www.w3.org/2000/svg">
<g clip-path="url(#clip0_5_5)">
<mask id="mask0_5_5" style="mask-type:luminance" maskUnits="userSpaceOnUse" x="26" y="18" width="24" height="24">
<path d="M50 18H26V42H50V18Z" fill="white"/>
</mask>
<g mask="url(#mask0_5_5)">
<path d="M39.4642 37.8295H48.386C48.6694 37.8295 48.9478 37.7572 49.1932 37.6197C49.437 37.4838 49.6408 37.2861 49.784 37.0465C49.9253 36.8097 49.9999 36.5392 50 36.2635C49.9997 35.9878 49.9248 35.7173 49.7833 35.4807L43.7916 25.4142C43.6484 25.1747 43.4447 24.9771 43.2009 24.8412C42.9543 24.7034 42.6764 24.6311 42.3939 24.6313C42.1106 24.6313 41.8323 24.7037 41.5869 24.8411C41.3431 24.977 41.1394 25.1746 40.9962 25.4142L39.4642 27.99L36.4688 22.9534C36.3255 22.7139 36.1216 22.5163 35.8778 22.3804C35.6311 22.2427 35.3532 22.1704 35.0707 22.1706C34.7873 22.1706 34.509 22.2429 34.2635 22.3803C34.0197 22.5162 33.8158 22.7138 33.6725 22.9533L26.2168 35.4808C26.0753 35.7174 26.0004 35.9878 26 36.2635C25.9999 36.5384 26.0744 36.8085 26.216 37.0465C26.3592 37.2861 26.563 37.4838 26.8068 37.6197C27.0522 37.7572 27.3306 37.8295 27.614 37.8295H33.2143C35.4333 37.8295 37.0697 36.8841 38.1956 35.0396L40.9293 30.4474L42.3935 27.99L46.7879 35.372H40.9293L39.4642 37.8295ZM33.123 35.3694L29.2147 35.3685L35.0733 25.5264L37.9965 30.4474L36.0393 33.7366C35.2915 34.9333 34.4421 35.3694 33.123 35.3694Z" fill="white"/>
</g>
<mask id="mask1_5_5" style="mask-type:luminance" maskUnits="userSpaceOnUse" x="49" y="5" width="24" height="24">
<path d="M73 5H49V29H73V5Z" fill="white"/>
</mask>
<g mask="url(#mask1_5_5)">
<path d="M60.5723 5C60.396 5 60.2625 5.0013 60.2139 5.0067C60.1623 5.012 59.998 5.0277 59.8503 5.0395C56.4415 5.3468 53.2486 7.1858 51.2263 10.0123C50.1002 11.584 49.38 13.3666 49.108 15.255C49.0118 15.914 49 16.1087 49 17.0024C49 17.8961 49.012 18.0908 49.108 18.75C49.76 23.256 52.9671 27.0419 57.3167 28.4445C58.0956 28.6956 58.9167 28.8668 59.8504 28.97C60.214 29.01 61.7858 29.01 62.1494 28.97C63.7611 28.7917 65.1266 28.393 66.4731 27.7057C66.6796 27.6001 66.7195 27.572 66.6914 27.5484C66.6726 27.5345 65.7927 26.3546 64.7371 24.9284L62.8181 22.3364L60.4134 18.7781C59.0903 16.8217 58.0017 15.2221 57.9923 15.2221C57.9829 15.2195 57.9736 16.8008 57.9688 18.7311C57.9621 22.1113 57.9595 22.2473 57.9172 22.3271C57.8562 22.4421 57.8092 22.4889 57.7108 22.5405C57.6358 22.5779 57.57 22.585 57.2158 22.585H56.8098L56.702 22.517C56.6351 22.4751 56.5808 22.416 56.5448 22.3458L56.4955 22.2402L56.5008 17.5372L56.5075 12.8318L56.5801 12.7403C56.6177 12.691 56.6975 12.6278 56.7537 12.5973C56.8499 12.5503 56.8875 12.5456 57.2933 12.5456C57.772 12.5456 57.8517 12.5643 57.976 12.7003C58.0113 12.738 59.3133 14.699 60.871 17.0611C62.4482 19.4519 64.0263 21.8421 65.6054 24.2317L67.5056 27.1099L67.6016 27.0466C68.4534 26.493 69.3541 25.7048 70.0673 24.8839C71.5852 23.141 72.5636 21.0159 72.892 18.7499C72.9881 18.0908 72.9998 17.8959 72.9998 17.0024C72.9998 16.1087 72.9878 15.914 72.892 15.2548C72.2398 10.7488 69.0328 6.9629 64.6833 5.5603C63.9161 5.3116 63.0997 5.1403 62.1848 5.0371C62.0158 5.0195 61.1011 5.0004 60.5723 5ZM64.6408 12.217C64.9881 12.217 65.049 12.2223 65.1265 12.264C65.2392 12.3202 65.3305 12.4282 65.3635 12.5407C65.3821 12.6017 65.3869 13.906 65.3821 16.8451L65.3754 21.0626L64.6318 19.9226L63.8857 18.7826V15.7166C63.8857 13.7346 63.895 12.6203 63.9091 12.5664C63.9466 12.4351 64.0287 12.3318 64.1414 12.2709C64.2375 12.2215 64.2724 12.217 64.6408 12.217Z" fill="white"/>
</g>
<path d="M91.23 36.004C91.23 36.5969 90.9946 37.1654 90.5754 37.5847C90.1563 38.004 89.5879 38.2397 88.995 38.24C88.402 38.24 87.8332 38.0044 87.4139 37.5851C86.9946 37.1658 86.759 36.597 86.759 36.004C86.759 35.4111 86.9944 34.8426 87.4136 34.4233C87.8327 34.004 88.4011 33.7683 88.994 33.768C89.587 33.768 90.1558 34.0036 90.5751 34.4229C90.9944 34.8422 91.23 35.411 91.23 36.004ZM93.878 25.314C92.532 25.314 90.771 26.274 88.99 27.936C87.21 26.283 85.448 25.334 84.103 25.334C83.693 25.334 83.32 25.427 82.997 25.612C81.622 26.405 81.314 28.876 82.024 31.977C78.98 32.917 77 34.42 77 36.004C77 37.594 78.99 39.101 82.043 40.034C81.339 43.147 81.653 45.622 83.031 46.414C83.351 46.601 83.721 46.689 84.133 46.689C85.478 46.689 87.24 45.729 89.021 44.065C90.801 45.719 92.563 46.668 93.908 46.668C94.318 46.668 94.691 46.578 95.014 46.393C96.388 45.601 96.697 43.13 95.987 40.028C99.02 39.096 101 37.59 101 36.004C101 34.414 99.01 32.907 95.957 31.972C96.661 28.862 96.347 26.385 94.969 25.592C94.651 25.408 94.282 25.315 93.878 25.314ZM93.873 26.404V26.41C94.098 26.41 94.279 26.454 94.431 26.537C95.097 26.919 95.386 28.372 95.161 30.241C95.107 30.701 95.019 31.186 94.911 31.681C93.951 31.445 92.905 31.264 91.804 31.147C91.144 30.242 90.459 29.42 89.769 28.7C91.361 27.22 92.856 26.408 93.874 26.405L93.873 26.404ZM84.103 26.424C85.115 26.424 86.617 27.232 88.213 28.704C87.527 29.424 86.843 30.241 86.193 31.146C85.086 31.263 84.039 31.444 83.08 31.684C82.968 31.194 82.885 30.72 82.826 30.264C82.596 28.396 82.88 26.944 83.54 26.557C83.73 26.467 83.94 26.429 84.103 26.424ZM88.985 29.474C89.44 29.942 89.895 30.466 90.345 31.038C89.905 31.018 89.455 31.004 89 31.004C88.54 31.004 88.085 31.014 87.64 31.038C88.08 30.466 88.535 29.943 88.985 29.474ZM89 32.1C89.74 32.1 90.477 32.134 91.202 32.193C91.608 32.775 92.004 33.396 92.385 34.053C92.757 34.693 93.095 35.343 93.403 35.999C93.095 36.654 92.757 37.309 92.39 37.949C92.01 38.609 91.617 39.237 91.21 39.819C90.482 39.882 89.744 39.917 89 39.917C88.26 39.917 87.523 39.882 86.798 39.824C86.392 39.242 85.996 38.62 85.615 37.964C85.243 37.324 84.905 36.674 84.597 36.018C84.9 35.361 85.243 34.705 85.61 34.064C85.99 33.404 86.383 32.778 86.79 32.196C87.518 32.132 88.256 32.098 89 32.098V32.1ZM85.365 32.354C85.125 32.731 84.885 33.117 84.661 33.514C84.436 33.904 84.226 34.296 84.026 34.688C83.761 34.032 83.536 33.378 83.35 32.741C83.99 32.591 84.665 32.457 85.365 32.354ZM92.625 32.354C93.32 32.457 93.99 32.584 94.631 32.741C94.451 33.373 94.226 34.023 93.971 34.674C93.771 34.284 93.561 33.891 93.331 33.5C93.106 33.108 92.865 32.726 92.625 32.354ZM95.688 33.029C96.172 33.179 96.632 33.346 97.063 33.527C98.795 34.267 99.915 35.235 99.915 36.003C99.91 36.771 98.79 37.743 97.058 38.478C96.638 38.658 96.178 38.82 95.703 38.971C95.423 38.013 95.057 37.015 94.603 35.991C95.053 34.974 95.413 33.981 95.688 33.027V33.029ZM82.293 33.033C82.571 33.993 82.938 34.99 83.393 36.013C82.943 37.03 82.581 38.023 82.307 38.977C81.823 38.827 81.363 38.659 80.937 38.477C79.205 37.74 78.085 36.771 78.085 36.003C78.085 35.235 79.205 34.261 80.937 33.527C81.357 33.347 81.817 33.185 82.293 33.033ZM93.971 37.313C94.236 37.97 94.461 38.625 94.647 39.261C94.007 39.418 93.331 39.551 92.631 39.651C92.871 39.276 93.111 38.889 93.336 38.493C93.561 38.103 93.77 37.705 93.971 37.313ZM84.026 37.333C84.226 37.725 84.436 38.116 84.666 38.508C84.896 38.898 85.131 39.28 85.371 39.651C84.676 39.549 84.006 39.421 83.365 39.265C83.545 38.635 83.771 37.983 84.025 37.332L84.026 37.333ZM94.92 40.32C95.032 40.813 95.12 41.288 95.174 41.743C95.404 43.611 95.12 45.063 94.46 45.451C94.313 45.541 94.122 45.579 93.897 45.579C92.885 45.579 91.383 44.772 89.787 43.299C90.473 42.579 91.157 41.763 91.807 40.859C92.914 40.741 93.961 40.56 94.92 40.32ZM83.09 40.33C84.05 40.564 85.096 40.745 86.197 40.862C86.857 41.767 87.542 42.589 88.232 43.308C86.637 44.791 85.14 45.603 84.122 45.603C83.902 45.598 83.716 45.553 83.569 45.471C82.903 45.091 82.614 43.637 82.839 41.768C82.893 41.308 82.982 40.824 83.09 40.33ZM87.65 40.97C88.09 40.99 88.54 41.004 88.995 41.004C89.455 41.004 89.91 40.994 90.355 40.97C89.915 41.542 89.46 42.065 89.01 42.535C88.555 42.065 88.1 41.542 87.65 40.97Z" fill="white"/>
<path d="M65.405 36.501C65.29 36.501 65.212 36.515 65.131 36.534V36.547H65.145C65.199 36.651 65.291 36.727 65.359 36.82C65.413 36.927 65.459 37.034 65.513 37.14L65.527 37.125C65.621 37.059 65.667 36.953 65.667 36.792C65.627 36.745 65.621 36.698 65.587 36.652C65.547 36.585 65.461 36.552 65.407 36.499L65.405 36.501ZM54.77 49.695H53.843C53.8169 48.2218 53.7268 46.7504 53.573 45.285H53.565L52.155 49.695H51.45L50.05 45.285H50.04C49.9305 46.7527 49.8655 48.2234 49.845 49.695H49C49.055 47.729 49.192 45.885 49.41 44.165H50.56L51.895 48.229H51.903L53.25 44.165H54.345C54.587 46.18 54.729 48.025 54.773 49.695H54.77ZM58.787 45.615C58.409 47.66 57.911 49.148 57.295 50.075C56.813 50.791 56.285 51.148 55.712 51.148C55.559 51.148 55.372 51.102 55.146 51.01V50.516C55.256 50.533 55.386 50.542 55.532 50.542C55.8 50.542 56.015 50.467 56.179 50.32C56.376 50.14 56.474 49.938 56.474 49.715C56.474 49.56 56.397 49.245 56.244 48.771L55.23 45.615H56.14L56.867 47.975C57.031 48.511 57.1 48.885 57.072 49.098C57.472 48.034 57.75 46.871 57.907 45.615H58.787ZM71.112 49.695H68.482V44.165H69.367V49.015H71.112V49.695ZM67.792 49.83L66.776 49.33C66.866 49.254 66.953 49.172 67.031 49.08C67.464 48.574 67.679 47.822 67.679 46.827C67.679 44.997 66.961 44.081 65.524 44.081C64.82 44.081 64.27 44.313 63.874 44.778C63.444 45.286 63.228 46.034 63.228 47.023C63.228 47.995 63.418 48.709 63.802 49.163C64.152 49.573 64.679 49.778 65.385 49.778C65.649 49.778 65.891 49.745 66.11 49.68L67.435 50.452L67.795 49.83H67.792ZM64.5 48.588C64.275 48.228 64.163 47.648 64.163 46.852C64.163 45.459 64.587 44.762 65.433 44.762C65.876 44.762 66.203 44.929 66.41 45.262C66.634 45.624 66.746 46.198 66.746 46.985C66.746 48.389 66.322 49.093 65.476 49.093C65.031 49.093 64.706 48.926 64.498 48.593L64.5 48.588ZM62.842 48.163C62.842 48.633 62.67 49.019 62.326 49.319C61.982 49.619 61.523 49.769 60.942 49.769C60.399 49.769 59.878 49.597 59.369 49.254L59.606 48.778C60.044 48.998 60.439 49.106 60.796 49.106C61.128 49.106 61.389 49.033 61.579 48.886C61.674 48.8144 61.7506 48.7214 61.8028 48.6145C61.8549 48.5076 61.881 48.3899 61.879 48.271C61.879 47.941 61.649 47.661 61.231 47.426C60.843 47.213 60.068 46.769 60.068 46.769C59.646 46.462 59.436 46.133 59.436 45.592C59.436 45.142 59.593 44.782 59.906 44.507C60.221 44.229 60.626 44.092 61.126 44.092C61.638 44.092 62.106 44.228 62.526 44.502L62.313 44.978C61.9774 44.8306 61.6155 44.7524 61.249 44.748C60.966 44.748 60.747 44.816 60.595 44.954C60.5179 45.0179 60.4557 45.0979 60.4128 45.1885C60.37 45.279 60.3475 45.3778 60.347 45.478C60.347 45.806 60.581 46.088 61.013 46.328C61.406 46.543 62.2 46.998 62.2 46.998C62.633 47.303 62.848 47.628 62.848 48.166L62.842 48.163ZM72.224 42.311C71.689 42.297 71.274 42.351 70.927 42.499C70.827 42.539 70.667 42.539 70.653 42.666C70.708 42.719 70.716 42.806 70.763 42.88C70.843 43.014 70.981 43.193 71.109 43.287C71.249 43.397 71.389 43.503 71.536 43.597C71.796 43.757 72.091 43.852 72.346 44.013C72.491 44.107 72.639 44.226 72.786 44.326C72.859 44.376 72.906 44.466 73 44.498V44.478C72.954 44.418 72.94 44.331 72.895 44.264C72.828 44.197 72.761 44.137 72.695 44.071C72.4987 43.8123 72.2644 43.5847 72 43.396C71.786 43.25 71.318 43.046 71.23 42.801L71.217 42.787C71.363 42.774 71.537 42.721 71.677 42.681C71.904 42.621 72.112 42.634 72.347 42.575C72.453 42.548 72.56 42.515 72.667 42.481V42.421C72.547 42.301 72.457 42.138 72.333 42.026C71.9869 41.7235 71.6178 41.4483 71.229 41.203C71.019 41.069 70.753 40.983 70.532 40.869C70.452 40.829 70.318 40.809 70.272 40.742C70.152 40.596 70.082 40.402 69.997 40.228C69.8006 39.8471 69.6182 39.4592 69.45 39.065C69.33 38.803 69.257 38.542 69.11 38.302C68.42 37.165 67.673 36.476 66.524 35.802C66.277 35.662 65.981 35.602 65.668 35.528C65.501 35.52 65.334 35.508 65.168 35.501C65.058 35.454 64.952 35.327 64.858 35.266C64.478 35.026 63.494 34.506 63.214 35.194C63.034 35.628 63.481 36.056 63.636 36.276C63.751 36.429 63.896 36.604 63.976 36.776C64.023 36.892 64.036 37.011 64.083 37.132C64.189 37.426 64.29 37.754 64.43 38.029C64.503 38.169 64.583 38.316 64.677 38.442C64.731 38.515 64.823 38.549 64.844 38.669C64.75 38.805 64.744 39.003 64.69 39.169C64.45 39.926 64.544 40.862 64.884 41.419C64.991 41.585 65.246 41.953 65.587 41.812C65.887 41.692 65.821 41.312 65.907 40.977C65.927 40.897 65.914 40.844 65.955 40.79V40.805C66.049 40.993 66.143 41.172 66.229 41.36C66.435 41.688 66.795 42.028 67.096 42.255C67.256 42.375 67.383 42.583 67.583 42.657V42.637H67.568C67.525 42.579 67.468 42.551 67.414 42.504C67.2872 42.3799 67.1702 42.2461 67.064 42.104C66.7822 41.719 66.5324 41.3117 66.317 40.886C66.207 40.676 66.115 40.45 66.027 40.243C65.987 40.163 65.987 40.043 65.92 40.003C65.82 40.149 65.673 40.276 65.6 40.456C65.473 40.744 65.46 41.098 65.412 41.466C65.385 41.473 65.398 41.466 65.385 41.48C65.171 41.428 65.098 41.206 65.018 41.02C64.818 40.545 64.785 39.782 64.958 39.235C65.005 39.095 65.205 38.653 65.125 38.519C65.083 38.392 64.951 38.319 64.878 38.216C64.7841 38.0819 64.7037 37.9389 64.638 37.789C64.478 37.415 64.398 37.001 64.224 36.627C64.144 36.454 64.004 36.273 63.89 36.114C63.763 35.934 63.623 35.807 63.522 35.594C63.489 35.521 63.442 35.4 63.495 35.32C63.509 35.266 63.537 35.245 63.589 35.23C63.677 35.158 63.924 35.252 64.011 35.292C64.258 35.392 64.466 35.486 64.673 35.626C64.767 35.692 64.868 35.819 64.988 35.852H65.128C65.342 35.899 65.583 35.866 65.783 35.925C66.138 36.039 66.458 36.205 66.745 36.385C67.6293 36.9499 68.3486 37.7386 68.83 38.671C68.91 38.825 68.945 38.966 69.018 39.126C69.158 39.456 69.331 39.789 69.473 40.108C69.613 40.423 69.748 40.744 69.949 41.005C70.049 41.145 70.451 41.218 70.631 41.291C70.764 41.351 70.971 41.406 71.091 41.479C71.321 41.619 71.545 41.779 71.761 41.933C71.871 42.009 72.204 42.176 72.224 42.311Z" fill="white"/>
<mask id="mask2_5_5" style="mask-type:luminance" maskUnits="userSpaceOnUse" x="16" y="42" width="24" height="24">
<path d="M40 42H16V66H40V42Z" fill="white"/>
</mask>
<g mask="url(#mask2_5_5)">
<path d="M39.642 47.43C39.6513 47.4625 39.656 47.4962 39.656 47.53V52.679C39.656 52.814 39.583 52.939 39.467 53.005L35.144 55.495V60.429C35.1439 60.495 35.1264 60.5599 35.0935 60.6171C35.0605 60.6743 35.0131 60.7218 34.956 60.755L25.93 65.949C25.9091 65.9605 25.887 65.9695 25.864 65.976C25.856 65.978 25.848 65.984 25.84 65.986C25.7773 66.004 25.7107 66.004 25.648 65.986C25.637 65.984 25.628 65.978 25.618 65.974C25.598 65.966 25.576 65.96 25.556 65.949L16.533 60.755C16.4756 60.7221 16.4279 60.6746 16.3947 60.6174C16.3615 60.5601 16.344 60.4952 16.344 60.429V44.974C16.344 44.941 16.349 44.908 16.358 44.876C16.361 44.864 16.368 44.856 16.372 44.844C16.378 44.8241 16.3857 44.8046 16.395 44.786C16.399 44.773 16.41 44.764 16.418 44.753L16.451 44.708C16.463 44.698 16.476 44.69 16.488 44.681C16.502 44.669 16.515 44.657 16.529 44.647L21.043 42.05C21.1 42.0171 21.1647 41.9998 21.2305 41.9998C21.2963 41.9998 21.361 42.0171 21.418 42.05L25.93 44.647H25.932C25.947 44.657 25.959 44.668 25.972 44.68L26.01 44.707C26.023 44.721 26.03 44.737 26.043 44.752C26.051 44.763 26.063 44.773 26.068 44.785C26.078 44.805 26.085 44.823 26.092 44.843C26.095 44.854 26.102 44.864 26.105 44.875C26.115 44.906 26.119 44.939 26.119 44.973V54.625L29.879 52.461V47.527C29.879 47.494 29.883 47.461 29.892 47.429C29.895 47.419 29.902 47.409 29.905 47.397C29.9117 47.3768 29.9197 47.3571 29.929 47.338C29.936 47.326 29.947 47.318 29.954 47.305C29.966 47.29 29.975 47.275 29.987 47.262C29.999 47.25 30.012 47.242 30.024 47.234C30.038 47.224 30.05 47.211 30.065 47.202L34.579 44.604C34.636 44.5711 34.7007 44.5538 34.7665 44.5538C34.8323 44.5538 34.897 44.5711 34.954 44.604L39.467 47.202C39.483 47.212 39.494 47.223 39.509 47.233C39.521 47.243 39.534 47.251 39.545 47.261C39.558 47.275 39.567 47.291 39.579 47.305C39.587 47.317 39.598 47.326 39.603 47.338C39.614 47.358 39.621 47.378 39.627 47.398C39.633 47.408 39.639 47.419 39.642 47.43ZM38.902 52.462V48.179L37.324 49.087L35.142 50.343V54.626L38.902 52.462ZM34.392 60.212V55.925L32.245 57.15L26.119 60.648V64.973L34.392 60.212ZM17.093 45.624V60.212L25.366 64.973V60.648L21.044 58.203L21.042 58.2H21.04C21.026 58.19 21.015 58.179 21 58.169C20.989 58.159 20.976 58.151 20.965 58.142L20.964 58.14C20.951 58.128 20.943 58.115 20.933 58.1C20.923 58.089 20.912 58.078 20.905 58.064H20.903C20.895 58.05 20.89 58.033 20.883 58.017C20.877 58.001 20.869 57.99 20.865 57.974C20.8612 57.9552 20.8585 57.9361 20.857 57.917C20.855 57.903 20.851 57.89 20.851 57.876V47.789L18.671 46.532L17.093 45.624ZM21.23 42.81L17.47 44.974L21.23 47.138L24.988 44.974L21.23 42.81ZM23.186 56.315L25.368 55.059V45.624L23.788 46.534L21.606 47.789V57.224L23.186 56.315ZM34.767 45.365L31.007 47.528L34.767 49.691L38.526 47.527L34.767 45.365ZM34.391 50.343L32.21 49.087L30.63 48.18V52.463L32.812 53.719L34.392 54.627L34.391 50.343ZM25.741 59.997L31.255 56.849L34.011 55.277L30.254 53.114L25.931 55.603L21.99 57.873L25.741 59.997Z" fill="white"/>
</g>
<mask id="mask3_5_5" style="mask-type:luminance" maskUnits="userSpaceOnUse" x="8" y="4" width="24" height="24">
<path d="M32 4H8V28H32V4Z" fill="white"/>
</mask>
<g mask="url(#mask3_5_5)">
<path d="M31.5594 18.7228C31.5457 18.6809 31.5268 18.6409 31.5031 18.6037C31.3641 18.3405 31.0263 18.2619 30.4957 18.3716C28.8424 18.7127 28.2022 18.5028 27.9701 18.3525C29.3121 16.3043 30.4151 13.8305 31.0112 11.5228C31.2826 10.4721 31.8094 7.9991 31.1334 6.7912C31.0902 6.70852 31.0397 6.62988 30.9825 6.5562C29.6931 4.9086 27.8007 4.0248 25.5099 4.0005C24.0152 3.9847 22.7394 4.3466 22.3938 4.4799C22.2226 4.44795 22.0506 4.42074 21.8779 4.3983C21.445 4.31991 21.0064 4.27717 20.5665 4.2705C19.3843 4.2521 18.3627 4.5347 17.5167 5.1111C16.6594 4.79 12.7279 3.4661 10.2948 5.1899C8.9359 6.1526 8.3086 7.8733 8.4302 10.3043C8.4711 11.1223 8.9371 13.6383 9.6725 16.0479C10.1323 17.5544 10.6112 18.7498 11.1059 19.6299C11.6589 20.6241 12.2318 21.2232 12.8202 21.4194C13.2676 21.5685 13.9529 21.5635 14.6783 20.6915C15.4795 19.728 16.2686 18.8657 16.6229 18.4846C17.058 18.7201 17.5293 18.8471 18.0129 18.8618L18.0133 18.8659C17.9291 18.9662 17.8467 19.068 17.7661 19.1713C17.4272 19.6015 17.3567 19.691 16.2659 19.9156C15.9557 19.9796 15.1315 20.1495 15.1195 20.7271C15.117 20.8495 15.1524 20.958 15.2114 21.0539C15.4383 21.477 16.133 21.6636 16.2264 21.687C17.5609 22.0205 18.7308 21.779 19.5978 21.0083C19.5808 23.2393 19.6753 25.4257 19.9432 26.0957C20.1644 26.6486 20.705 28.0002 22.4124 28C22.6629 28 22.9387 27.9709 23.242 27.9059C25.0239 27.5238 25.7977 26.7363 26.097 25C26.2473 24.1293 26.4986 22.1247 26.6358 20.8988C26.6527 20.8285 26.6715 20.7781 26.6928 20.7626C26.6928 20.7626 26.7625 20.7155 27.12 20.7933C27.1346 20.7965 27.1494 20.7987 27.1643 20.8001L27.4182 20.8224L27.4331 20.8234C28.2799 20.8618 29.3445 20.6808 29.9643 20.3926C30.6081 20.0938 31.77 19.3603 31.5594 18.7228ZM10.371 15.8765C9.6275 13.4407 9.1931 10.9914 9.1587 10.3046C9.0501 8.1332 9.5758 6.6217 10.721 5.8119C12.5577 4.5133 15.5608 5.2711 16.829 5.6819C16.8258 5.6851 16.8224 5.688 16.8192 5.6913C14.7954 7.7353 14.8434 11.2273 14.8484 11.4408C14.8482 11.5231 14.855 11.6397 14.8646 11.8001C14.8994 12.3874 14.9642 13.4805 14.7911 14.7185C14.6302 15.8689 14.9848 16.9949 15.7639 17.8077C15.8445 17.8918 15.9287 17.9708 16.0157 18.0451C15.6689 18.4165 14.9153 19.2377 14.1132 20.2027C13.5455 20.8852 13.1535 20.7544 13.0246 20.7114C12.6327 20.5807 12.2116 20.1243 11.7865 19.3891C11.3069 18.5501 10.823 17.3574 10.371 15.8765ZM16.3782 20.9636C16.2071 20.9208 16.0511 20.8504 15.946 20.7864C16.0349 20.747 16.1834 20.6962 16.4293 20.6455C17.7126 20.3814 17.9108 20.1949 18.3436 19.6453C18.4428 19.5193 18.5552 19.3766 18.7109 19.2027C18.7444 19.1651 18.7695 19.1209 18.7846 19.0729C18.9554 18.9216 19.057 18.963 19.2215 19.0312C19.3775 19.0958 19.5293 19.2912 19.591 19.5064C19.6201 19.608 19.6529 19.8009 19.5458 19.9508C18.6415 21.2166 17.3242 21.2002 16.3782 20.9636ZM18.4722 16.9756L18.4197 17.1166C18.2867 17.4732 18.163 17.8047 18.0863 18.1196C17.4189 18.1175 16.7695 17.8324 16.2758 17.3172C15.6479 16.6621 15.3627 15.7508 15.4933 14.8168C15.6761 13.5089 15.6086 12.37 15.5723 11.7582C15.5673 11.6725 15.5628 11.5975 15.5601 11.5383C15.8558 11.2762 17.226 10.5421 18.203 10.7659C18.6489 10.8681 18.9206 11.1716 19.0335 11.6939C19.6181 14.3977 19.1109 15.5246 18.7033 16.4302C18.6193 16.6168 18.54 16.7931 18.4722 16.9756ZM25.8359 21.5481C25.819 21.7249 25.8001 21.9241 25.7741 22.144L25.6281 22.5823C25.6165 22.617 25.6104 22.6534 25.6099 22.69C25.604 23.1647 25.5559 23.3389 25.4949 23.5593C25.4315 23.7885 25.3596 24.0484 25.3155 24.6168C25.2055 26.0311 24.4373 26.8435 22.8983 27.1733C21.3828 27.4984 21.114 26.6765 20.8771 25.9516C20.8528 25.8756 20.8272 25.8001 20.8002 25.725C20.5848 25.1392 20.6091 24.3131 20.6428 23.1699C20.6593 22.6087 20.6179 21.2686 20.3126 20.5237C20.317 20.2305 20.3232 19.9328 20.3316 19.6319C20.3326 19.5938 20.3274 19.5558 20.3163 19.5193C20.3066 19.449 20.292 19.3795 20.2724 19.3113C20.1498 18.883 19.8511 18.5247 19.4927 18.3762C19.3503 18.3172 19.0889 18.209 18.7749 18.2893C18.8419 18.0133 18.958 17.7018 19.0839 17.3644L19.1368 17.2224C19.1963 17.0624 19.2708 16.8967 19.3498 16.7212C19.7763 15.7736 20.3604 14.4759 19.7264 11.544C19.489 10.4459 18.696 9.9097 17.494 10.0342C16.7733 10.1088 16.1141 10.3996 15.7852 10.5663C15.7193 10.5997 15.654 10.6344 15.5894 10.6704C15.6812 9.564 16.028 7.4963 17.3251 6.1881C17.4215 6.09101 17.5227 5.99889 17.6284 5.9121C17.6809 5.90186 17.7304 5.87984 17.7731 5.8477C18.5255 5.2771 19.4676 4.9971 20.5751 5.0152C20.9842 5.0219 21.3768 5.0491 21.7493 5.0962C23.6883 5.4506 24.9932 6.543 25.7852 7.4789C26.5995 8.4412 27.0404 9.4104 27.2164 9.9332C25.8932 9.7986 24.993 10.06 24.5367 10.7122C23.5441 12.1311 25.0797 14.8851 25.8178 16.2086C25.9531 16.4512 26.07 16.6608 26.1067 16.7499C26.347 17.3324 26.6582 17.7212 26.8854 18.0051C26.955 18.0921 27.0226 18.1765 27.0739 18.2501C26.6731 18.3656 25.9531 18.6326 26.0187 19.9671C26.0064 20.1234 25.9764 20.414 25.9353 20.7819C25.8892 20.9896 25.8651 21.2422 25.8359 21.5481ZM26.7264 19.927C26.6859 19.0954 26.9955 19.0085 27.3231 18.9165C27.3684 18.9041 27.4134 18.8905 27.4581 18.8759C27.5004 18.9133 27.5452 18.9478 27.5923 18.9789C28.1626 19.3554 29.1746 19.4002 30.5991 19.1133C30.3975 19.2902 30.0802 19.5127 29.6458 19.7144C29.236 19.9047 28.5501 20.0474 27.8985 20.078C27.1788 20.1116 26.8126 19.9973 26.7264 19.927ZM27.2959 10.6558C27.29 11.0066 27.2417 11.325 27.1905 11.6575C27.1355 12.0151 27.0785 12.3849 27.0641 12.8337C27.0499 13.2705 27.1045 13.7246 27.1573 14.1638C27.2639 15.0508 27.3733 15.9641 26.9498 16.8652C26.8795 16.7406 26.8169 16.6118 26.7622 16.4796C26.7095 16.352 26.5953 16.147 26.4371 15.8634C25.8215 14.7593 24.3797 12.1738 25.1178 11.1188C25.4973 10.5761 26.4586 10.5527 27.2959 10.6558ZM27.5243 17.6695C27.4961 17.6335 27.4676 17.5977 27.439 17.5621L27.4035 17.5177C28.1297 16.3182 27.9877 15.1315 27.8613 14.0792C27.8094 13.6474 27.7604 13.2396 27.7728 12.8566C27.7857 12.4505 27.8394 12.1023 27.8913 11.7655C27.9552 11.3505 28.0201 10.9212 28.0022 10.415C28.0156 10.3619 28.021 10.2992 28.014 10.2248C27.9683 9.7393 27.4141 8.2868 26.2846 6.9718C25.677 6.2645 24.795 5.4746 23.5957 4.9323C24.1208 4.8257 24.8285 4.7288 25.6201 4.7464C27.6716 4.792 29.2947 5.5599 30.4443 7.0288C30.4687 7.06069 30.491 7.09416 30.511 7.129C31.2341 8.4846 30.2348 13.4041 27.5243 17.6695ZM18.7077 11.5533C18.6827 11.7327 18.3988 11.9758 18.0866 11.9758C18.0595 11.9758 18.0325 11.9739 18.0057 11.9702C17.8184 11.9442 17.6292 11.8262 17.4998 11.6546C17.454 11.5941 17.3795 11.4766 17.3943 11.3702C17.3998 11.3301 17.4204 11.2717 17.4868 11.2214C17.605 11.132 17.8386 11.0988 18.0964 11.1347C18.4127 11.1788 18.739 11.3285 18.7077 11.5533ZM26.6382 11.1419C26.6493 11.2211 26.5892 11.3429 26.4851 11.4521C26.4168 11.5238 26.2731 11.6482 26.0772 11.6753C26.0523 11.6788 26.0273 11.6805 26.0022 11.6805C25.7087 11.6805 25.4608 11.4461 25.4415 11.3088C25.4175 11.1323 25.7056 10.9982 26.0026 10.9568C26.2996 10.9154 26.6137 10.9656 26.6382 11.1419Z" fill="white"/>
</g>
<mask id="mask4_5_5" style="mask-type:luminance" maskUnits="userSpaceOnUse" x="98" y="44" width="24" height="24">
<path d="M122 44H98V68H122V44Z" fill="white"/>
</mask>
<g mask="url(#mask4_5_5)">
<path d="M98 44H122V68H98V44ZM120.034 62.276C119.859 61.181 119.146 60.261 117.031 59.403C116.295 59.058 115.477 58.818 115.234 58.263C115.143 57.933 115.129 57.753 115.188 57.558C115.338 56.912 116.103 56.718 116.703 56.898C117.093 57.018 117.453 57.318 117.679 57.798C118.713 57.122 118.713 57.122 119.434 56.673C119.164 56.253 119.03 56.072 118.848 55.893C118.218 55.188 117.379 54.828 116.014 54.859L115.309 54.948C114.633 55.113 113.989 55.473 113.599 55.953C112.459 57.244 112.788 59.494 114.168 60.424C115.533 61.444 117.529 61.668 117.784 62.629C118.024 63.799 116.914 64.174 115.818 64.039C115.007 63.859 114.558 63.453 114.063 62.703L112.233 63.754C112.443 64.234 112.683 64.443 113.043 64.863C114.783 66.619 119.133 66.529 119.914 63.859C119.943 63.769 120.154 63.154 119.988 62.209L120.034 62.276ZM111.051 55.031H108.803C108.803 56.969 108.794 58.895 108.794 60.836C108.794 62.068 108.857 63.199 108.656 63.547C108.326 64.236 107.476 64.148 107.09 64.027C106.694 63.831 106.493 63.561 106.26 63.172C106.197 63.067 106.15 62.976 106.133 62.976L104.308 64.101C104.613 64.731 105.058 65.273 105.632 65.618C106.487 66.128 107.636 66.293 108.839 66.023C109.622 65.797 110.297 65.332 110.65 64.612C111.16 63.682 111.052 62.542 111.047 61.266C111.059 59.212 111.047 57.157 111.047 55.087L111.051 55.031Z" fill="white"/>
</g>
<mask id="mask5_5_5" style="mask-type:luminance" maskUnits="userSpaceOnUse" x="76" y="0" width="24" height="24">
<path d="M100 0H76V24H100V0Z" fill="white"/>
</mask>
<g mask="url(#mask5_5_5)">
<path d="M87.998 24C87.677 24 87.357 23.916 87.076 23.753L84.14 22.016C83.702 21.771 83.916 21.684 84.06 21.633C84.645 21.43 84.763 21.383 85.388 21.029C85.453 20.992 85.539 21.006 85.606 21.046L87.862 22.385C87.944 22.43 88.059 22.43 88.134 22.385L96.929 17.309C97.011 17.262 97.063 17.168 97.063 17.071V6.921C97.063 6.822 97.01 6.729 96.926 6.679L88.135 1.607C88.054 1.56 87.946 1.56 87.864 1.607L79.075 6.68C78.99 6.729 78.936 6.825 78.936 6.921V17.071C78.936 17.168 78.99 17.26 79.075 17.306L81.484 18.698C82.791 19.352 83.592 18.582 83.592 17.808V7.787C83.592 7.645 83.706 7.534 83.848 7.534H84.963C85.102 7.534 85.218 7.646 85.218 7.787V17.808C85.218 19.553 84.268 20.553 82.614 20.553C82.106 20.553 81.705 20.553 80.588 20.002L78.28 18.675C77.71 18.346 77.358 17.73 77.358 17.071V6.921C77.358 6.262 77.711 5.646 78.28 5.318L87.075 0.235998C87.632 -0.0790017 88.371 -0.0790017 88.923 0.235998L97.717 5.318C98.287 5.647 98.641 6.262 98.641 6.921V17.071C98.641 17.73 98.287 18.344 97.717 18.675L88.923 23.753C88.643 23.916 88.324 24 87.998 24ZM95.099 13.993C95.099 12.093 93.815 11.587 91.112 11.23C88.381 10.869 88.103 10.682 88.103 10.043C88.103 9.515 88.338 8.81 90.361 8.81C92.168 8.81 92.834 9.199 93.108 10.417C93.132 10.532 93.237 10.616 93.355 10.616H94.496C94.567 10.616 94.634 10.585 94.682 10.535C94.73 10.481 94.756 10.412 94.749 10.339C94.572 8.241 93.178 7.263 90.361 7.263C87.853 7.263 86.357 8.321 86.357 10.096C86.357 12.021 87.845 12.553 90.252 12.791C93.132 13.073 93.355 13.494 93.355 14.06C93.355 15.043 92.566 15.462 90.713 15.462C88.386 15.462 87.874 14.878 87.702 13.72C87.682 13.596 87.576 13.505 87.449 13.505H86.312C86.171 13.505 86.058 13.617 86.058 13.758C86.058 15.24 86.864 17.006 90.713 17.006C93.501 17.007 95.099 15.91 95.099 13.993Z" fill="white"/>
</g>
<path d="M7.01 32.207H6.066L5.551 34.855H6.389C6.945 34.855 7.359 34.75 7.631 34.541C7.903 34.331 8.086 33.982 8.181 33.492C8.273 33.022 8.231 32.69 8.057 32.497C7.882 32.304 7.534 32.207 7.01 32.207ZM12 27.688C5.373 27.688 0 30.514 0 34C0 37.486 5.373 40.313 12 40.313C18.627 40.313 24 37.486 24 34C24 30.514 18.627 27.688 12 27.688ZM8.74 35.139C8.479 35.389 8.165 35.577 7.823 35.69C7.487 35.798 7.058 35.854 6.538 35.854H5.357L5.03 37.535H3.652L4.882 31.209H7.532C8.329 31.209 8.91 31.418 9.276 31.837C9.642 32.255 9.752 32.839 9.606 33.589C9.55008 33.8858 9.44711 34.1717 9.301 34.436C9.158 34.691 8.971 34.926 8.74 35.139ZM12.764 35.854L13.307 33.055C13.37 32.737 13.346 32.519 13.239 32.404C13.132 32.288 12.903 32.23 12.552 32.23H11.46L10.756 35.855H9.388L10.618 29.528H11.985L11.658 31.21H12.876C13.643 31.21 14.171 31.344 14.462 31.611C14.753 31.878 14.84 32.311 14.725 32.91L14.153 35.854H12.764ZM20.361 33.589C20.306 33.886 20.203 34.1721 20.056 34.436C19.913 34.691 19.726 34.926 19.495 35.139C19.2339 35.3882 18.9207 35.5764 18.578 35.69C18.242 35.798 17.813 35.854 17.292 35.854H16.112L15.785 37.536H14.407L15.637 31.21H18.286C19.083 31.21 19.664 31.419 20.03 31.838C20.396 32.255 20.507 32.839 20.361 33.589ZM17.766 32.207H16.823L16.307 34.855H17.145C17.702 34.855 18.116 34.75 18.387 34.541C18.659 34.331 18.842 33.982 18.938 33.492C19.03 33.022 18.987 32.69 18.813 32.497C18.639 32.304 18.289 32.207 17.766 32.207Z" fill="white"/>
<mask id="mask6_5_5" style="mask-type:luminance" maskUnits="userSpaceOnUse" x="55" y="47" width="24" height="24">
<path d="M79 47H55V71H79V47Z" fill="white"/>
</mask>
<g mask="url(#mask6_5_5)">
<path d="M56.811 57.231C56.764 57.231 56.753 57.208 56.776 57.172L57.022 56.857C57.045 56.822 57.103 56.799 57.15 56.799H61.322C61.368 56.799 61.38 56.834 61.357 56.869L61.158 57.172C61.135 57.208 61.076 57.242 61.041 57.242L56.811 57.231ZM55.047 58.306C55 58.306 54.988 58.283 55.012 58.248L55.257 57.932C55.28 57.897 55.339 57.874 55.386 57.874H60.714C60.761 57.874 60.784 57.909 60.772 57.944L60.679 58.224C60.667 58.271 60.621 58.294 60.574 58.294L55.047 58.306ZM57.875 59.381C57.828 59.381 57.816 59.346 57.84 59.311L58.003 59.019C58.026 58.984 58.073 58.949 58.12 58.949H60.457C60.504 58.949 60.527 58.984 60.527 59.031L60.504 59.311C60.504 59.358 60.457 59.393 60.422 59.393L57.875 59.381ZM70.004 57.021C69.268 57.208 68.765 57.348 68.041 57.535C67.865 57.581 67.854 57.593 67.701 57.418C67.527 57.219 67.398 57.091 67.153 56.974C66.416 56.612 65.703 56.717 65.038 57.149C64.243 57.663 63.834 58.423 63.846 59.369C63.857 60.304 64.5 61.075 65.423 61.204C66.218 61.309 66.883 61.029 67.41 60.434C67.515 60.304 67.608 60.164 67.725 60H65.47C65.225 60 65.166 59.848 65.248 59.65C65.4 59.288 65.68 58.68 65.844 58.376C65.869 58.3197 65.9101 58.2719 65.962 58.2387C66.0139 58.2055 66.0744 58.1882 66.136 58.189H70.389C70.366 58.505 70.366 58.82 70.319 59.136C70.198 59.9679 69.8684 60.7557 69.361 61.426C68.52 62.536 67.421 63.226 66.031 63.412C64.886 63.564 63.822 63.342 62.888 62.642C62.023 61.987 61.532 61.122 61.404 60.047C61.252 58.773 61.626 57.628 62.397 56.623C63.227 55.537 64.325 54.847 65.669 54.603C66.767 54.403 67.819 54.533 68.765 55.174C69.385 55.584 69.828 56.144 70.121 56.822C70.191 56.927 70.144 56.985 70.004 57.021ZM73.872 63.483C72.808 63.459 71.838 63.155 71.02 62.454C70.3395 61.8805 69.8909 61.079 69.758 60.199C69.548 58.879 69.91 57.71 70.705 56.67C71.558 55.548 72.586 54.964 73.977 54.72C75.169 54.51 76.291 54.625 77.307 55.315C78.23 55.945 78.803 56.799 78.955 57.92C79.153 59.498 78.698 60.783 77.611 61.882C76.84 62.665 75.893 63.155 74.806 63.377C74.491 63.437 74.176 63.447 73.872 63.483ZM76.652 58.763C76.641 58.61 76.641 58.493 76.618 58.376C76.408 57.219 75.344 56.566 74.234 56.822C73.147 57.067 72.446 57.757 72.189 58.855C71.979 59.767 72.423 60.69 73.264 61.065C73.907 61.345 74.549 61.309 75.169 60.995C76.092 60.515 76.594 59.767 76.653 58.762L76.652 58.763Z" fill="white"/>
</g>
<path d="M46 56L35.605 62V74L46 80L56.395 74V62L46 56ZM52 72.59C52 73.295 51.354 73.88 50.471 73.88C49.84 73.88 49.12 73.625 48.67 73.07L42.67 65.929V72.589C42.67 73.31 42.1 73.879 41.396 73.879H41.32C40.599 73.879 40.03 73.279 40.03 72.589V63.41C40.03 62.705 40.66 62.12 41.53 62.12C42.176 62.12 42.91 62.375 43.36 62.93L49.33 70.071V63.41C49.33 62.689 49.93 62.12 50.62 62.12H50.695C51.415 62.12 51.985 62.72 51.985 63.41V72.59H52Z" fill="white"/>
<mask id="mask7_5_5" style="mask-type:luminance" maskUnits="userSpaceOnUse" x="2" y="58" width="24" height="24">
<path d="M26 58H2V82H26V58Z" fill="white"/>
</mask>
<g mask="url(#mask7_5_5)">
<path d="M15.983 69.078H18.102C18.1512 69.078 18.1983 69.0585 18.2332 69.0239C18.268 68.9892 18.2877 68.9422 18.288 68.893V67.006C18.288 66.9567 18.2684 66.9094 18.2335 66.8745C18.1986 66.8396 18.1513 66.82 18.102 66.82H15.983C15.9339 66.82 15.8869 66.8395 15.8522 66.8742C15.8175 66.9089 15.798 66.9559 15.798 67.005V68.893C15.798 68.995 15.881 69.078 15.983 69.078ZM13.029 63.648H15.147C15.1963 63.648 15.2436 63.6284 15.2785 63.5935C15.3134 63.5586 15.333 63.5113 15.333 63.462V61.574C15.3327 61.5248 15.313 61.4778 15.2782 61.4431C15.2433 61.4085 15.1962 61.389 15.147 61.389H13.029C12.9799 61.389 12.9329 61.4085 12.8982 61.4432C12.8635 61.4779 12.844 61.5249 12.844 61.574V63.462C12.844 63.564 12.926 63.648 13.029 63.648ZM13.029 66.363H15.147C15.1963 66.3627 15.2434 66.3431 15.2782 66.3082C15.3131 66.2734 15.3327 66.2262 15.333 66.177V64.29C15.3327 64.2408 15.313 64.1938 15.2782 64.1591C15.2433 64.1245 15.1962 64.105 15.147 64.105H13.029C12.9799 64.105 12.9329 64.1245 12.8982 64.1592C12.8635 64.1939 12.844 64.2409 12.844 64.29V66.177C12.844 66.279 12.926 66.362 13.029 66.363ZM10.099 66.363H12.219C12.268 66.3625 12.3148 66.3426 12.3492 66.3078C12.3837 66.273 12.403 66.226 12.403 66.177V64.29C12.403 64.2409 12.3835 64.1939 12.3488 64.1592C12.3141 64.1245 12.2671 64.105 12.218 64.105H10.1C10.0509 64.105 10.0039 64.1245 9.96919 64.1592C9.93449 64.1939 9.915 64.2409 9.915 64.29V66.177C9.915 66.279 9.998 66.362 10.1 66.363M7.136 66.363H9.255C9.30416 66.3627 9.35121 66.343 9.38588 66.3082C9.42054 66.2733 9.44 66.2262 9.44 66.177V64.29C9.44 64.2409 9.42051 64.1939 9.38582 64.1592C9.35112 64.1245 9.30407 64.105 9.255 64.105H7.136C7.08684 64.105 7.03969 64.1245 7.00483 64.1591C6.96998 64.1938 6.95027 64.2408 6.95 64.29V66.177C6.95 66.279 7.034 66.362 7.136 66.363ZM13.029 69.078H15.147C15.1962 69.078 15.2433 69.0585 15.2782 69.0239C15.313 68.9892 15.3327 68.9422 15.333 68.893V67.006C15.333 66.9567 15.3134 66.9094 15.2785 66.8745C15.2436 66.8396 15.1963 66.82 15.147 66.82H13.029C12.9799 66.82 12.9329 66.8395 12.8982 66.8742C12.8635 66.9089 12.844 66.9559 12.844 67.005V68.893C12.844 68.995 12.926 69.078 13.029 69.078ZM10.099 69.078H12.219C12.2679 69.0777 12.3147 69.0581 12.3492 69.0235C12.3836 68.9888 12.403 68.9419 12.403 68.893V67.006C12.4031 66.9817 12.3985 66.9576 12.3893 66.9351C12.3801 66.9126 12.3666 66.8922 12.3495 66.8749C12.3324 66.8576 12.3121 66.8439 12.2897 66.8345C12.2673 66.825 12.2433 66.8201 12.219 66.82H10.099C10.0501 66.8203 10.0033 66.8399 9.96883 66.8745C9.93435 66.9092 9.915 66.9561 9.915 67.005V68.893C9.915 68.995 9.998 69.078 10.1 69.078M7.136 69.078H9.255C9.30407 69.078 9.35112 69.0585 9.38582 69.0238C9.42051 68.9891 9.44 68.9421 9.44 68.893V67.006C9.44013 66.9817 9.43548 66.9576 9.4263 66.9351C9.41713 66.9126 9.40361 66.8922 9.38652 66.8749C9.36944 66.8576 9.34912 66.8439 9.32672 66.8345C9.30433 66.825 9.2803 66.8201 9.256 66.82H7.136C7.08667 66.82 7.03936 66.8396 7.00448 66.8745C6.9696 66.9094 6.95 66.9567 6.95 67.006V68.893C6.95 68.995 7.034 69.078 7.136 69.078ZM4.216 69.078H6.336C6.38489 69.0777 6.43169 69.0581 6.46617 69.0235C6.50065 68.9888 6.52 68.9419 6.52 68.893V67.006C6.52013 66.9817 6.51548 66.9576 6.5063 66.9351C6.49713 66.9126 6.48361 66.8922 6.46652 66.8749C6.44944 66.8576 6.42912 66.8439 6.40672 66.8345C6.38433 66.825 6.3603 66.8201 6.336 66.82H4.216C4.16711 66.8203 4.12031 66.8399 4.08583 66.8745C4.05135 66.9092 4.032 66.9561 4.032 67.005V68.893C4.032 68.995 4.113 69.078 4.216 69.078ZM25.763 67.89C25.698 67.839 25.091 67.38 23.809 67.38C23.471 67.381 23.133 67.41 22.799 67.467C22.551 65.767 21.146 64.937 21.083 64.901L20.739 64.702L20.513 65.029C20.229 65.467 20.023 65.951 19.901 66.459C19.671 67.429 19.811 68.341 20.304 69.12C19.709 69.452 18.754 69.533 18.56 69.54H2.751C2.55252 69.5403 2.36221 69.6191 2.22167 69.7593C2.08113 69.8994 2.00179 70.0895 2.001 70.288C1.98248 71.6728 2.217 73.0494 2.693 74.35C3.238 75.778 4.048 76.83 5.103 77.474C6.283 78.197 8.203 78.611 10.378 78.611C11.361 78.614 12.341 78.525 13.308 78.345C14.6508 78.0983 15.943 77.6288 17.131 76.956C18.111 76.389 18.991 75.668 19.741 74.82C20.993 73.402 21.739 71.823 22.294 70.42H22.515C23.887 70.42 24.73 69.871 25.195 69.411C25.504 69.118 25.745 68.761 25.902 68.365L26 68.077L25.763 67.89Z" fill="white"/>
</g>
<mask id="mask8_5_5" style="mask-type:luminance" maskUnits="userSpaceOnUse" x="70" y="65" width="24" height="24">
<path d="M94 65H70V89H94V65Z" fill="white"/>
</mask>
<g mask="url(#mask8_5_5)">
<path d="M91.72 82.91V71.5L91.19 71.01L79.05 83.52L77.76 83.46L94 66.53L93.67 65.58L81.74 66.58L75.99 73.18V72.95L80.69 67.56L79.31 66.79L70.2 67.56V70.41L72.11 70.87V70.88L72.3 70.87L71.74 71.53V82.13C72.349 82.004 72.96 81.889 73.57 81.77L84.12 70.22L84.95 70.18L70 86.44L79.67 87.26L81.02 86.49L87.84 79.75V81.9L82.12 87.47L93.38 88.42L93.73 87.48V84.32L90.44 84.14C90.874 83.737 91.298 83.324 91.72 82.91Z" fill="white"/>
</g>
<path d="M110.314 12L98.3 24L102 27.7L117.684 12.013H110.327L110.314 12ZM110.328 23.072L103.857 29.53L110.327 36H117.7L111.24 29.532L117.7 23.072H110.33H110.328Z" fill="white"/>
</g>
<defs>
<clipPath id="clip0_5_5">
<rect width="122" height="89" fill="white"/>
</clipPath>
</defs>
</svg>
